#!OML:ASF F:\VICON\USERDATA\INSTALL\rory3\rory3.ASF
:FULLY-SPECIFIED
:DEGREES
18
root 0.4660708721394151 17.520801045668804 -14.295689323487533 6.631275527872276 -0.5045410980250947 -1.8279694421674848
lfemur -13.861105664953822 8.090454038443761 -17.425604843091964
ltibia 19.559705412100286
lfoot -10.433099334994273 5.2573414829335
ltoes -13.976895015077549
rfemur -13.999605520033565 -2.298915416017026 19.030911105026966
rtibia 21.30430584090235
rfoot -13.119100336623754 -2.155391740092056
rtoes 4.941363531401769
lowerback -1.8685159132385585 -0.6184806574016642 0.699001863451796
upperback 5.142649581050016 -0.9613898954173006 1.72681766628265
thorax 6.4067706357349525 -0.49046619605124 1.3348171223695857
lowerneck -10.988304987754052 0.5162909720301803 -2.2976464933808467
upperneck 36.60138535294765 0.9616343466607904 1.0669748147559215
head 14.376584241255653 0.23091664508658744 0.9894236543845372
lclavicle 1.093862995073302e-15 -2.2156995452968785e-15
lhumerus -15.87250874906516 1.4688560500163703 87.96099661524184
lradius 17.741306561229813
lwrist -1.7522828802762342
lhand -23.485001733815295 -3.602486054007855
lfingers 7.12502
lthumb 2.9746982483970936 26.35649390663835
rclavicle 1.093862995073302e-15 -2.2156995452968785e-15
rhumerus -18.735609669475622 -17.855493912135337 -82.64759116628328
rradius 25.604903345986845
rwrist 32.383006706650235
rhand -18.239793897824118 -26.789498186302563
rfingers 7.12502
rthumb 8.03888611660756 -56.616597875472486
19
root 0.47446133314744354 17.519701048991678 -14.288589463885234 6.591855534578765 -0.5443437670557912 -1.8374092906873833
lfemur -13.797405471691082 8.096104030027313 -17.441304725669625
ltibia 19.5800058093495
lfoot -10.415599339200785 5.203731574026853
ltoes -13.613395545532692
rfemur -13.94960535712162 -2.337015353636043 19.013711248643233
rtibia 21.330305698777035
rfoot -13.129500327823294 -2.1017718660966525
rtoes 4.9070435412767175
lowerback -1.8785559466303754 -0.6464612830182304 0.625514458223505
upperback 5.15611932647586 -0.9948935522596271 1.7143379104222063
thorax 6.428530489847764 -0.5104598500511516 1.360416759834858
lowerneck -11.006604931350966 0.5352446480818975 -2.283926836571131
upperneck 36.66418496832967 0.9977530254785694 1.033395121970635
head 14.409884279036245 0.2422833243066469 0.9793330407966594
lclavicle 1.0938629977297317e-15 -2.215699567681391e-15
lhumerus -15.948709109070563 1.6548759508462219 87.96299669177922
lradius 17.692306639018053
lwrist -1.8415429255924787
lhand -23.548001393676948 -3.635695927425564
lfingers 7.12502
lthumb 2.913868615146546 26.324194111368318
rclavicle 1.0938629977297317e-15 -2.215699567681391e-15
rhumerus -18.566909916402352 -17.806793811679967 -82.55949149719828
rradius 25.62860313636861
rwrist 32.439806464907946
rhand -18.190694220543687 -26.80499804970591
rfingers 7.12502
rthumb 8.086275771463516 -56.63029776880738
20
root 0.48150488101847644 17.519601048328685 -14.28258921132796 6.589435453647678 -0.5417197946831365 -1.8568289841184384
lfemur -13.782605455640383 8.069104140288454 -17.443904687959943
ltibia 19.607105730114412
lfoot -10.444999305450468 5.153881722533136
ltoes -13.312696033746338
rfemur -13.911505063847516 -2.397985105974458 19.01541109945711
rtibia 21.298605638828107
rfoot -13.124400309799876 -2.071121873589088
rtoes 4.772633575564328
lowerback -1.9207359455856419 -0.6732199244110345 0.5841698212876243
upperback 5.149299452954976 -1.0278011919906131 1.6893783909509765
thorax 6.446500462405053 -0.5280844989495367 1.354696878448526
lowerneck -11.042504753722165 0.526324777035183 -2.2910266630727585
upperneck 36.705284986987444 0.9898450932438094 1.024925171220985
head 14.437684330722718 0.23558851515517748 0.9765481465644551
lclavicle 1.0938629951576312e-15 -2.2156995536649016e-15
lhumerus -16.029308610318704 1.5568259108916775 88.00759652023014
lradius 17.68610679794962
lwrist -1.9115929516684362
lhand -23.693200552145473 -3.808005238241817
lfingers 7.12502
lthumb 2.7736394473592707 26.153694723160573
rclavicle 1.0938629951576312e-15 -2.2156995536649016e-15
rhumerus -18.433710508798708 -17.7578937450294 -82.51819150438625
rradius 25.65890324094928
rwrist 32.44090650746278
rhand -18.242293844023624 -26.882797346877627
rfingers 7.12502
rthumb 8.036496147488394 -56.70999710769927
21
root 0.48692453304714467 17.520301042353847 -14.277990189053094 6.591855534578765 -0.5619836231573572 -1.8995982974927637
lfemur -13.77600579145504 8.092024012496827 -17.416504849310975
ltibia 19.62440570594762
lfoot -10.47189933583293 5.073511826740148
ltoes -13.128696272466897
rfemur -13.869605269049451 -2.388385161177275 19.04411102433922
rtibia 21.239605674917385
rfoot -13.09210035053549 -2.057771907465102
rtoes 4.800993591741693
lowerback -1.9518959319199505 -0.6888387526252552 0.5836638316665823
upperback 5.126679481422666 -1.0471909957442573 1.6607989385697421
thorax 6.44021049390355 -0.5368063551754915 1.323417292449128
lowerneck -11.0337048641617 0.5192728875492901 -2.298866463500149
upperneck 36.66508520258353 0.9907640433429634 0.9967044591739325
head 14.41708436354746 0.231008640687902 0.965787555316568
lclavicle 1.0938629898447721e-15 -2.2156995467612812e-15
lhumerus -16.053308600873226 1.3333460645653963 88.0559964245342
lradius 17.734406882257005
lwrist -1.7869126905958899
lhand -23.63570088526628 -3.5934259731074194
lfingers 7.12502
lthumb 2.8291491152435353 26.36759393662934
rclavicle 1.0938629898447721e-15 -2.2156995467612812e-15
rhumerus -18.33841014187564 -17.683394084487773 -82.52719162116304
rradius 25.685203187422264
rwrist 32.414006650842076
rhand -18.30529346809486 -26.867897494408076
rfingers 7.12502
rthumb 7.9756965119554675 -56.69739719188623
22
root 0.491847216912868 17.52120103770499 -14.27578951077257 6.585045539400588 -0.5578746529117387 -1.9430076124714595
lfemur -13.772605752287813 8.068674149157584 -17.384505034812562
ltibia 19.648105353635422
lfoot -10.49719925308975 5.002421987450651
ltoes -12.918396457030472
rfemur -13.806305556401583 -2.4212849935011764 19.074410851491994
rtibia 21.147705608515793
rfoot -13.067100380626053 -2.0136620249696677
rtoes 4.962763446006154
lowerback -1.9393958296599876 -0.7082214816460045 0.5912727748665609
upperback 5.082719724439698 -1.0716708096133396 1.6465092104415395
thorax 6.386280632362485 -0.5480041466343979 1.3025575867286618
lowerneck -11.019804915171695 0.5125910449599694 -2.2896666900224862
upperneck 36.62388586982658 1.0085998469546094 0.9114792135339259
head 14.395284264592405 0.22867171137800324 0.9311788728812693
lclavicle 1.0938629981513856e-15 -2.215699564752544e-15
lhumerus -16.088408709835356 1.2019464104164097 88.10699635876898
lradius 17.814706773019147
lwrist -1.6381126705890496
lhand -23.66040074308814 -3.5206563822957535
lfingers 7.12502
lthumb 2.8053392529014993 26.44059364271355
rclavicle 1.0938629981513856e-15 -2.215699564752544e-15
rhumerus -18.299110716813303 -17.480394088436753 -82.55889144709651
rradius 25.743303057820796
rwrist 32.319806748162335
rhand -18.34269323577558 -26.868097492427804
rfingers 7.12502
rthumb 7.939606754912161 -56.698997191281485
